<svg width="101" height="101" viewBox="0 0 101 101" fill="none" xmlns="http://www.w3.org/2000/svg">
<rect width="101" height="101" rx="5" fill="#F1F6F8"/>
<path d="M14.85 19.99V19.09H30.87V70.21C30.87 74.95 29.91 78.13 27.99 79.75C26.07 81.31 23.16 82.09 19.26 82.09C15.42 82.09 12 81.52 9 80.38L9.27 79.66C12.15 80.8 15.12 81.37 18.18 81.37C20.22 81.37 21.57 80.5 22.23 78.76C22.95 77.02 23.31 74.2 23.31 70.3V19.99H14.85Z" fill="#1F1F1F"/>
<path d="M53.3 19.18C55.94 19.06 58.52 19 61.04 19C63.62 19 66.32 19.27 69.14 19.81C72.02 20.35 74.84 21.37 77.6 22.87C80.42 24.31 82.79 26.2 84.71 28.54C86.69 30.82 88.28 33.85 89.48 37.63C90.68 41.41 91.28 46 91.28 51.4C91.28 56.8 90.38 61.66 88.58 65.98C86.84 70.24 84.44 73.51 81.38 75.79C75.44 80.23 68.27 82.45 59.87 82.45C56.93 82.45 53.84 82.33 50.6 82.09H46.1V19.18H53.3ZM53.57 81.37C54.83 81.49 56.42 81.55 58.34 81.55C60.26 81.55 61.7 81.52 62.66 81.46C63.62 81.4 64.94 81.16 66.62 80.74C68.3 80.26 69.86 79.63 71.3 78.85C72.74 78.07 74.24 76.93 75.8 75.43C77.42 73.87 78.8 72.04 79.94 69.94C82.52 65.02 83.81 58.6 83.81 50.68C83.81 45.04 83.12 40.18 81.74 36.1C80.36 31.96 78.77 28.9 76.97 26.92C75.23 24.94 73.1 23.38 70.58 22.24C68.06 21.04 66.05 20.35 64.55 20.17C63.05 19.99 61.31 19.9 59.33 19.9C57.35 19.9 55.43 19.99 53.57 20.17V81.37Z" fill="#69AE96"/>
</svg>
